<?xml version="1.0" encoding="UTF-8"?> <svg xmlns="http://www.w3.org/2000/svg" width="214" height="164" viewBox="0 0 214 164" fill="none"><path fill-rule="evenodd" clip-rule="evenodd" d="M127.151 80.4344C121.413 84.9172 115.547 87.463 112.599 87.0796C105.209 86.1185 101.342 60.0736 105.621 49.0934C109.9 38.1132 137.847 30.1249 141.789 50.3553C143.157 57.3764 140.95 64.0632 137.175 69.7619L149.588 105.514L126.629 108.333L127.151 80.4344Z" fill="#D4A181"></path><path fill-rule="evenodd" clip-rule="evenodd" d="M115.688 49.2483C119.134 50.5547 121.8 53.5861 125.07 57.6236C125.689 57.2891 126.38 57.0623 127.121 56.9714C130.291 56.5822 133.175 58.8282 133.563 61.988C133.76 63.5921 133.276 65.1234 132.336 66.2932C133.894 67.9988 135.622 69.768 137.575 71.5728C143.512 66.9542 146.889 55.1529 139.302 45.1461C136.922 40.0798 132.656 37.7414 127.866 37.0005C123.924 35.8973 120.009 36.199 116.838 37.5399C110.464 38.8816 104.952 41.5459 103.465 42.9089C104.211 48.9881 105.614 50.6466 115.688 49.2483Z" fill="#191847"></path><path fill-rule="evenodd" clip-rule="evenodd" d="M56.5895 207.566L84.3615 181.483L93.1479 197.277L64.4641 213.477C57.1468 224.533 52.8802 229.291 51.6645 227.752C50.6394 226.454 51.1448 225.059 51.6104 223.774C51.9731 222.773 52.3115 221.839 51.8834 221.07C50.9058 219.312 45.189 220.212 39.8005 221.297C34.4119 222.382 35.7009 219.774 36.8663 218.422C42.0122 214.427 48.5866 210.808 56.5895 207.566ZM221.446 227.274C217.947 221.949 201.616 167.869 201.616 167.869L181.635 170.402C181.635 170.402 207.466 227.708 209.389 231.172C211.887 235.672 209.476 242.952 207.841 247.889C207.588 248.653 207.353 249.36 207.159 249.993C210.39 250.983 211.659 249.151 212.997 247.219C214.508 245.037 216.107 242.728 220.72 244.216C222.503 244.791 224.212 245.52 225.883 246.232C231.651 248.691 236.951 250.951 243.173 245.984C244.16 245.197 245.026 242.582 241.963 240.998C234.334 237.052 223.157 229.877 221.446 227.274Z" fill="#B28B67"></path><path fill-rule="evenodd" clip-rule="evenodd" d="M134.539 91.228L126.093 90.8294C98.6469 121.026 92.2748 173.346 57.957 204.862L68.3856 214.938C132.661 198.87 141.233 134.953 134.539 91.228Z" fill="#C75A41"></path><path fill-rule="evenodd" clip-rule="evenodd" d="M183.322 190.422C183.322 190.422 133.571 196.531 110.13 199.409C106.785 199.82 106.824 194.929 107.01 192.44C109.147 163.72 127.218 130.825 122.318 90.9172L143.025 85.0249C163.925 110.876 174.196 144.602 183.322 190.422Z" fill="#DDE3E9"></path><path fill-rule="evenodd" clip-rule="evenodd" d="M170.508 109.249C174.316 108.504 177.587 106.476 179.295 102.264C185.307 87.4376 181.582 80.1382 173.027 78.6389C168.323 77.8145 164.174 79.2809 159.207 81.0363C155.142 82.4732 150.528 84.1037 144.614 84.8298C144.042 84.9001 143.525 85.0024 143.061 85.1336L136.104 86.3923C136.104 86.3923 119.459 185.976 136.158 216.54L194.01 209.437C198.267 216.908 202.336 223.384 206.024 228.289L221.721 226.361C216.726 171.723 190.91 132.379 170.508 109.249Z" fill="#FF6340"></path></svg> 